<svg xmlns="http://www.w3.org/2000/svg" width="272.077" height="85.229" viewBox="0 0 272.077 85.229">
  <g id="Camada_x0020_1" transform="translate(0.06 -0.84)">
    <g id="_2057692063264" transform="translate(-0.06 0.84)">
      <g id="Grupo_35" data-name="Grupo 35" transform="translate(0 61.099)">
        <path id="Caminho_30" data-name="Caminho 30" d="M-.06,628.41H11.168l8.965,11.5,8.986-11.5H40.327v23H31.361v-12.27l-8.986,12.27H17.892l-8.984-12.27v12.27H-.06Z" transform="translate(0.06 -627.845)" fill="#fff"/>
        <path id="Caminho_31" data-name="Caminho 31" d="M420.291,642.212h6.316l-3.15-6.794Zm-2.173-13.452H428.78l12.338,23h-10.1l-1.815-3.937H417.69l-1.814,3.937h-10.1Z" transform="translate(-365.903 -628.161)" fill="#fff"/>
        <path id="Caminho_32" data-name="Caminho 32" d="M782.635,628.41h8.985v23h-10.1L769.167,637.36v14.051H760.2v-23h12.339l10.1,12.186Z" transform="translate(-685.498 -627.845)" fill="#fff"/>
        <path id="Caminho_33" data-name="Caminho 33" d="M1399.425,634.443c.051-3.748-3.065-4.432-6.727-4.484-3.679.051-6.794.736-6.743,4.484v.565c-.052,3.765,3.064,4.45,6.743,4.5,3.662-.051,6.778-.736,6.727-4.5Zm8.966-.547v1.677c.034,8.693-7.051,11.209-15.693,11.226-8.658-.017-15.744-2.533-15.71-11.226V633.9c-.034-8.711,7.051-11.209,15.71-11.226C1401.358,622.67,1408.391,625.2,1408.391,633.9Z" transform="translate(-1241.682 -622.669)" fill="#fff"/>
        <path id="Caminho_34" data-name="Caminho 34" d="M1711.39,628.41h11.225l8.968,11.5,8.984-11.5h11.21v23h-8.968v-12.27l-8.984,12.27h-4.484l-8.986-12.27v12.27h-8.966Z" transform="translate(-1543.226 -627.845)" fill="#fff"/>
        <path id="Caminho_35" data-name="Caminho 35" d="M2131.723,642.212h6.314l-3.148-6.794Zm-2.173-13.452h10.661l12.339,23h-10.1l-1.814-3.937h-11.517l-1.813,3.937h-10.1Z" transform="translate(-1909.171 -628.161)" fill="#fff"/>
        <path id="Caminho_36" data-name="Caminho 36" d="M2481.049,636.694c-.566,7.769-7.377,10.1-15.661,10.1-8.624-.017-15.744-2.515-15.709-11.226v-1.677c-.034-8.693,7.085-11.193,15.709-11.227,8.283.018,15.095,2.345,15.661,10.1h-9.19c-.839-2.26-3.389-2.791-6.47-2.791-3.661.052-6.776.7-6.724,4.484v.565c-.052,3.748,3.063,4.432,6.724,4.484,3.082,0,5.648-.547,6.47-2.806Z" transform="translate(-2208.972 -622.66)" fill="#fff"/>
        <path id="Caminho_37" data-name="Caminho 37" d="M1099.49,628.76v7.29h14.033l-5.144,3.715v12h8.968V636.05h8.889v-7.29Z" transform="translate(-991.45 -628.161)" fill="#fff"/>
      </g>
      <g id="Grupo_36" data-name="Grupo 36" transform="translate(101.315)">
        <path id="Caminho_38" data-name="Caminho 38" d="M1375.73.84l19.576,38.836h16L1391.746.84Z" transform="translate(-1341.862 -0.84)" fill="#fff"/>
        <path id="Caminho_39" data-name="Caminho 39" d="M1103.88.84l19.576,38.836h16L1119.9.84Z" transform="translate(-1096.724 -0.84)" fill="#fff"/>
        <path id="Caminho_40" data-name="Caminho 40" d="M1047.07,250.377l-8-15.878-8.017,15.878h16.02Z" transform="translate(-1031.05 -211.541)" fill="#fff"/>
      </g>
    </g>
  </g>
</svg>
